PathFileType	4	(X/Y/Z)	RBDS03static.trc
DataRate	CameraRate	NumFrames	NumMarkers	Units	OrigDataRate	OrigDataStartFrame	OrigNumFrames
150.000000	150.000000	4	48	mm	150.000000	75	150
Frame#	Time	L.Ankle			L.Ankle.Medial			L.ASIS			L.GTR			L.Heel.Bottom			L.Heel.Lateral			L.Heel.Top			L.HF			L.Iliac.Crest			L.Knee			L.Knee.Medial			L.MT1			L.MT2			L.MT5			L.PSIS			L.Shank.Bottom.Lateral			L.Shank.Bottom.Medial			L.Shank.Top.Lateral			L.Shank.Top.Medial			L.Thigh.Bottom.Lateral			L.Thigh.Bottom.Medial			L.Thigh.Top.Lateral			L.Thigh.Top.Medial			L.TT			R.Ankle			R.Ankle.Medial			R.ASIS			R.GTR			R.Heel.Bottom			R.Heel.Lateral			R.Heel.Top			R.HF			R.Iliac.Crest			R.Knee			R.Knee.Medial			R.MT1			R.MT2			R.MT5			R.PSIS			R.Shank.Bottom.Lateral			R.Shank.Bottom.Medial			R.Shank.Top.Lateral			R.Shank.Top.Medial			R.Thigh.Bottom.Lateral			R.Thigh.Bottom.Medial			R.Thigh.Top.Lateral			R.Thigh.Top.Medial			R.TT			
		X1	Y1	Z1	X2	Y2	Z2	X3	Y3	Z3	X4	Y4	Z4	X5	Y5	Z5	X6	Y6	Z6	X7	Y7	Z7	X8	Y8	Z8	X9	Y9	Z9	X10	Y10	Z10	X11	Y11	Z11	X12	Y12	Z12	X13	Y13	Z13	X14	Y14	Z14	X15	Y15	Z15	X16	Y16	Z16	X17	Y17	Z17	X18	Y18	Z18	X19	Y19	Z19	X20	Y20	Z20	X21	Y21	Z21	X22	Y22	Z22	X23	Y23	Z23	X24	Y24	Z24	X25	Y25	Z25	X26	Y26	Z26	X27	Y27	Z27	X28	Y28	Z28	X29	Y29	Z29	X30	Y30	Z30	X31	Y31	Z31	X32	Y32	Z32	X33	Y33	Z33	X34	Y34	Z34	X35	Y35	Z35	X36	Y36	Z36	X37	Y37	Z37	X38	Y38	Z38	X39	Y39	Z39	X40	Y40	Z40	X41	Y41	Z41	X42	Y42	Z42	X43	Y43	Z43	X44	Y44	Z44	X45	Y45	Z45	X46	Y46	Z46	X47	Y47	Z47	X48	Y48	Z48	

76	0.5	716.8009643554688	111.3652877807617	1045.376708984375	727.3912963867188	119.6986618041992	1125.771118164063	848.2567749023438	1064.699951171875	1103.920166015625	781.6478271484375	959.8401489257813	1050.173950195313	638.1834716796875	42.52271270751953	1086.636596679688	674.5912475585938	58.02459335327148	1043.185546875	649.1289672851563	92.73249816894531	1089.790283203125	721.6679077148438	496.34423828125	1048.12841796875	765.5729370117188	1121.844482421875	1064.490844726563	720.6985473632813	552.273681640625	1055.761352539063	722.0347290039063	536.12890625	1169.984619140625	859.133544921875	62.1705436706543	1140.558837890625	867.0062866210938	73.56033325195313	1099.802856445313	835.1249389648438	55.39555358886719	1031.821044921875	686.7236328125	1080.59375	1181.718383789063	710.1893310546875	186.4769592285156	1043.573364257813	666.7730102539063	185.5042266845703	1076.463623046875	701.3992919921875	265.3526611328125	1032.694946289063	658.7362060546875	265.4560546875	1065.086181640625	735.8294067382813	644.0382690429688	1048.875610351563	676.830810546875	650.1992797851563	1093.381469726563	737.7824096679688	753.9976806640625	1039.363037109375	683.2031860351563	760.1771240234375	1083.443603515625	772.5006103515625	476.8460083007813	1094.782592773438	708.5655517578125	110.2786102294922	1411.268432617188	728.0458374023438	127.4875640869141	1333.423583984375	871.69140625	1072.127319335938	1316.545654296875	812.4600219726563	968.1260986328125	1385.958129882813	631.6119384765625	45.17377853393555	1364.974609375	668.695556640625	66.56687164306641	1410.976318359375	641.8402099609375	93.7894287109375	1364.442626953125	724.3196411132813	498.8678283691406	1409.996459960938	805.0586547851563	1134.514404296875	1362.965576171875	727.9388427734375	565.7116088867188	1400.027221679688	730.0025634765625	541.619384765625	1286.240478515625	844.7857055664063	58.14295959472656	1322.93505859375	861.8668212890625	75.81683349609375	1371.205078125	824.95263671875	51.3978157043457	1437.775512695313	696.9859619140625	1084.039184570313	1264.178466796875	694.6611328125	179.8678131103516	1413.33642578125	662.113037109375	183.2730255126953	1373.077758789063	688.3809814453125	264.1504211425781	1423.123291015625	655.7442626953125	263.4587097167969	1380.065673828125	765.6937866210938	674.2227783203125	1406.493774414063	699.177734375	675.5136108398438	1375.11962890625	764.1787109375	785.2593994140625	1409.181396484375	703.0371704101563	785.7401123046875	1375.824096679688	778.6663208007813	478.3497619628906	1368.671630859375	
77	0.5066666666666667	716.796142578125	111.3680114746094	1045.3701171875	727.3826904296875	119.691291809082	1125.768920898438	848.2520751953125	1064.698608398438	1103.916748046875	781.6480102539063	959.8325805664063	1050.158325195313	638.1775512695313	42.51998519897461	1086.633178710938	674.5816040039063	58.01639556884766	1043.18701171875	649.1202392578125	92.72214508056641	1089.787353515625	721.6710205078125	496.3431396484375	1048.126586914063	765.5885620117188	1121.842651367188	1064.48681640625	720.688232421875	552.2699584960938	1055.754272460938	722.03564453125	536.1268920898438	1169.983642578125	859.1309204101563	62.17510986328125	1140.570922851563	867.0089721679688	73.56317138671875	1099.810913085938	835.1301879882813	55.39831924438477	1031.82421875	686.7010498046875	1080.6005859375	1181.7021484375	710.1931762695313	186.4804229736328	1043.5810546875	666.7681884765625	185.5081481933594	1076.474487304688	701.3895874023438	265.3507995605469	1032.706298828125	658.7366333007813	265.4513854980469	1065.082763671875	735.8412475585938	644.0313720703125	1048.882080078125	676.819091796875	650.1968994140625	1093.38232421875	737.772705078125	753.9965209960938	1039.364624023438	683.1964721679688	760.1727294921875	1083.440063476563	772.4848022460938	476.8489379882813	1094.783447265625	708.5634155273438	110.277214050293	1411.277099609375	728.0307006835938	127.4776992797852	1333.421997070313	871.661865234375	1072.122192382813	1316.540893554688	812.4418334960938	968.1310424804688	1385.954833984375	631.6126098632813	45.17251586914063	1364.973266601563	668.6888427734375	66.56807708740234	1410.979858398438	641.833251953125	93.78989410400391	1364.449584960938	724.2564697265625	498.7562866210938	1409.75537109375	805.0485229492188	1134.511352539063	1362.951904296875	727.9160766601563	565.7139282226563	1400.037719726563	729.9951782226563	541.6130981445313	1286.233154296875	844.7952270507813	58.14387130737305	1322.946044921875	861.8657836914063	75.81755065917969	1371.212646484375	824.9479370117188	51.39784240722656	1437.794067382813	696.9720458984375	1084.033447265625	1264.159912109375	694.6563110351563	179.8645629882813	1413.344116210938	662.1104125976563	183.2685546875	1373.0751953125	688.3743896484375	264.1529541015625	1423.121459960938	655.7392578125	263.4527587890625	1380.06396484375	765.6680297851563	674.2219848632813	1406.49755859375	699.15771484375	675.5115966796875	1375.106689453125	764.1566162109375	785.2566528320313	1409.17529296875	703.0164184570313	785.7367553710938	1375.814697265625	778.6475219726563	478.36083984375	1368.676635742188	
78	0.5133333333333334	716.8001708984375	111.3666076660156	1045.365600585938	727.3843383789063	119.6958694458008	1125.756225585938	848.2396240234375	1064.687377929688	1103.915893554688	781.6443481445313	959.8341064453125	1050.158569335938	638.1808471679688	42.51849746704102	1086.631713867188	674.5855102539063	58.02731323242188	1043.188232421875	649.121337890625	92.73851013183594	1089.780639648438	721.6841430664063	496.3397216796875	1048.122924804688	765.5806884765625	1121.841064453125	1064.476318359375	720.6948852539063	552.2686767578125	1055.756225585938	722.0267944335938	536.1317138671875	1169.975952148438	859.1243286132813	62.17438507080078	1140.563110351563	867.0072631835938	73.55557250976563	1099.81005859375	835.1309204101563	55.39517974853516	1031.8310546875	686.6963500976563	1080.59912109375	1181.684326171875	710.1981201171875	186.4738311767578	1043.5771484375	666.7766723632813	185.5070190429688	1076.473266601563	701.3905639648438	265.3473815917969	1032.70751953125	658.734619140625	265.4463500976563	1065.07763671875	735.8167114257813	644.0272827148438	1048.8759765625	676.8193969726563	650.1927490234375	1093.376708984375	737.7659912109375	753.9859619140625	1039.3583984375	683.1908569335938	760.1778564453125	1083.438354492188	772.496826171875	476.8502197265625	1094.784545898438	708.5654296875	110.2705307006836	1411.276977539063	728.0328369140625	127.4810943603516	1333.433837890625	871.6466674804688	1072.121948242188	1316.532592773438	812.4251098632813	968.1302490234375	1385.957763671875	631.615234375	45.17154312133789	1364.96728515625	668.6920166015625	66.557861328125	1410.98291015625	641.8369140625	93.79022216796875	1364.453002929688	724.2885131835938	498.8617553710938	1409.991455078125	805.0289306640625	1134.507446289063	1362.942993164063	727.9033203125	565.7158203125	1400.029541015625	730.0036010742188	541.6002807617188	1286.232299804688	844.791748046875	58.14170074462891	1322.946899414063	861.8580322265625	75.81027984619141	1371.221557617188	824.9473876953125	51.38900375366211	1437.788940429688	696.9520874023438	1084.03271484375	1264.14892578125	694.6524047851563	179.8601379394531	1413.334716796875	662.1087646484375	183.2641296386719	1373.076049804688	688.3651733398438	264.1461181640625	1423.124633789063	655.7345581054688	263.4457397460938	1380.061889648438	765.6473999023438	674.2196044921875	1406.481201171875	699.1348876953125	675.5081787109375	1375.100952148438	764.1395874023438	785.2564697265625	1409.170776367188	702.9974365234375	785.739013671875	1375.803344726563	778.6368408203125	478.3415832519531	1368.66943359375	
79	0.52	716.7860717773438	111.3604431152344	1045.368774414063	727.383056640625	119.7008972167969	1125.77734375	848.2303466796875	1064.689331054688	1103.914916992188	781.6470947265625	959.8236083984375	1050.154174804688	638.1805419921875	42.51254272460938	1086.630493164063	674.589599609375	58.02311325073242	1043.186279296875	649.1256103515625	92.723876953125	1089.7802734375	721.6912231445313	496.3438110351563	1048.12060546875	765.5817260742188	1121.841552734375	1064.47021484375	720.6990966796875	552.2685546875	1055.74951171875	722.0150146484375	536.1357421875	1169.98291015625	859.1306762695313	62.17397308349609	1140.569702148438	867.002197265625	73.56058502197266	1099.814086914063	835.1229248046875	55.39937210083008	1031.828002929688	686.6824951171875	1080.5986328125	1181.672485351563	710.2045288085938	186.4693603515625	1043.578002929688	666.7669677734375	185.5040893554688	1076.472045898438	701.3914184570313	265.3445434570313	1032.701049804688	658.7249755859375	265.4483032226563	1065.073120117188	735.83056640625	644.0263061523438	1048.8720703125	676.8162841796875	650.1943969726563	1093.381591796875	737.7625122070313	753.98828125	1039.35791015625	683.1854858398438	760.1659545898438	1083.425537109375	772.5010375976563	476.8477172851563	1094.78369140625	708.564697265625	110.2670974731445	1411.283325195313	728.0264282226563	127.4847640991211	1333.4248046875	871.6196899414063	1072.115356445313	1316.52392578125	812.4004516601563	968.1175537109375	1385.956420898438	631.6085815429688	45.17065811157227	1364.977294921875	668.6901245117188	66.55522155761719	1410.982666015625	641.8401489257813	93.78723907470703	1364.45361328125	724.2803955078125	498.8781433105469	1409.994384765625	805.013427734375	1134.510864257813	1362.9326171875	727.888427734375	565.7142333984375	1400.030395507813	729.9920043945313	541.5906372070313	1286.240844726563	844.7794189453125	58.15080642700195	1322.949340820313	861.859619140625	75.80377960205078	1371.218627929688	824.9481811523438	51.39631271362305	1437.791870117188	696.9298095703125	1084.033569335938	1264.137329101563	694.6460571289063	179.8638916015625	1413.342041015625	662.0975952148438	183.2620239257813	1373.081420898438	688.3563842773438	264.148681640625	1423.125732421875	655.7305297851563	263.4531555175781	1380.073852539063	765.625732421875	674.2280883789063	1406.481689453125	699.1196899414063	675.5022583007813	1375.094604492188	764.1134643554688	785.2642822265625	1409.163452148438	702.9840087890625	785.7359008789063	1375.7939453125	778.6195068359375	478.3302917480469	1368.671020507813	
